<?xml version="1.0" encoding="UTF-8" standalone="no"?><svg xmlns="http://www.w3.org/2000/svg" xmlns:xlink="http://www.w3.org/1999/xlink" contentScriptType="application/ecmascript" contentStyleType="text/css" height="783px" preserveAspectRatio="none" style="width:969px;height:783px;" version="1.1" viewBox="0 0 969 783" width="969px" zoomAndPan="magnify"><defs><filter height="300%" id="f1dm258nz3kp82" width="300%" x="-1" y="-1"><feGaussianBlur result="blurOut" stdDeviation="2.0"/><feColorMatrix in="blurOut" result="blurOut2" type="matrix" values="0 0 0 0 0 0 0 0 0 0 0 0 0 0 0 0 0 0 .4 0"/><feOffset dx="4.0" dy="4.0" in="blurOut2" result="blurOut3"/><feBlend in="SourceGraphic" in2="blurOut3" mode="normal"/></filter></defs><g><!--cluster de.gematik.ti.epa.android.fdv.service.localization--><polygon fill="#FFFFFF" filter="url(#f1dm258nz3kp82)" points="22,148,373,148,380,171.6094,854,171.6094,854,771,22,771,22,148" style="stroke: #000000; stroke-width: 1.5;"/><line style="stroke: #000000; stroke-width: 1.5;" x1="22" x2="380" y1="171.6094" y2="171.6094"/><text fill="#000000" font-family="sans-serif" font-size="14" font-weight="bold" lengthAdjust="spacingAndGlyphs" textLength="345" x="26" y="164.5332">de.gematik.ti.epa.android.fdv.service.localization</text><!--cluster de.gematik.ti.epa.fdv.service.localization.spi--><polygon fill="#FFFFFF" filter="url(#f1dm258nz3kp82)" points="585,24,903,24,910,47.6094,913,47.6094,913,124,585,124,585,24" style="stroke: #000000; stroke-width: 1.5;"/><line style="stroke: #000000; stroke-width: 1.5;" x1="585" x2="910" y1="47.6094" y2="47.6094"/><text fill="#000000" font-family="sans-serif" font-size="14" font-weight="bold" lengthAdjust="spacingAndGlyphs" textLength="312" x="589" y="40.5332">de.gematik.ti.epa.fdv.service.localization.spi</text><!--class de.gematik.ti.epa.android.fdv.service.localization.AbstractServiceLocator--><rect fill="#FEFECE" filter="url(#f1dm258nz3kp82)" height="366.2266" id="de.gematik.ti.epa.android.fdv.service.localization.AbstractServiceLocator" style="stroke: #A80036; stroke-width: 1.5;" width="327" x="38.5" y="184"/><ellipse cx="134.25" cy="200" fill="#A9DCDF" rx="11" ry="11" style="stroke: #A80036; stroke-width: 1.0;"/><path d="M136,201.5 L132.7031,201.5 L132.2656,202.5 L132.2656,202.5 L132.7344,202.5 L133.25,203.125 L133.25,203.5 L133.25,203.875 L132.7344,204.5 L132.2656,204.5 L130.375,204.5 L129.7656,204.5 L129.25,203.875 L129.25,203.5 L129.25,203.125 L129.7656,202.5 L130.375,202.5 L132.6875,196.5 L131.8125,196.5 L130.7656,196.5 L130.25,195.875 L130.25,195.5 L130.25,195.125 L130.7656,194.5 L131.8125,194.5 L135.4844,194.5 L138.1719,202.5 L138.7344,202.5 L138.7344,202.5 L139.25,203.125 L139.25,203.5 L139.25,203.875 L138.7344,204.5 L138.1719,204.5 L136.2813,204.5 L135.7656,204.5 L135.25,203.875 L135.25,203.5 L135.25,203.125 L135.7656,202.5 L136.2813,202.5 L136.2813,202.5 L136,201.5 Z M135.4531,199.5 L134.25,195.9219 L133.2188,199.5 L135.4531,199.5 Z "/><text fill="#000000" font-family="sans-serif" font-size="12" font-style="italic" lengthAdjust="spacingAndGlyphs" textLength="127" x="154.75" y="204.9102">AbstractServiceLocator</text><line style="stroke: #A80036; stroke-width: 1.5;" x1="39.5" x2="364.5" y1="216" y2="216"/><rect fill="none" height="6" style="stroke: #C82930; stroke-width: 1.0;" width="6" x="46.5" y="225.418"/><text fill="#000000" font-family="sans-serif" font-size="11" lengthAdjust="spacingAndGlyphs" text-decoration="underline" textLength="47" x="58.5" y="231.4189">PORT : int</text><rect fill="none" height="6" style="stroke: #C82930; stroke-width: 1.0;" width="6" x="46.5" y="239.2539"/><text fill="#000000" font-family="sans-serif" font-size="11" lengthAdjust="spacingAndGlyphs" text-decoration="underline" textLength="78" x="58.5" y="245.2549">SCHEME : String</text><rect fill="none" height="6" style="stroke: #C82930; stroke-width: 1.0;" width="6" x="46.5" y="253.0898"/><text fill="#000000" font-family="sans-serif" font-size="11" lengthAdjust="spacingAndGlyphs" textLength="301" x="58.5" y="259.0908">dnsTxtRecordValues : Map&lt;String, GatewayModulePathType&gt;</text><rect fill="none" height="6" style="stroke: #C82930; stroke-width: 1.0;" width="6" x="46.5" y="266.9258"/><text fill="#000000" font-family="sans-serif" font-size="11" lengthAdjust="spacingAndGlyphs" textLength="59" x="58.5" y="272.9268">fqdn : String</text><rect fill="none" height="6" style="stroke: #C82930; stroke-width: 1.0;" width="6" x="46.5" y="280.7617"/><text fill="#000000" font-family="sans-serif" font-size="11" lengthAdjust="spacingAndGlyphs" textLength="137" x="58.5" y="286.7627">lookupStatus : LookupStatus</text><rect fill="none" height="6" style="stroke: #C82930; stroke-width: 1.0;" width="6" x="46.5" y="294.5977"/><text fill="#000000" font-family="sans-serif" font-size="11" lengthAdjust="spacingAndGlyphs" textLength="83" x="58.5" y="300.5986">running : boolean</text><line style="stroke: #A80036; stroke-width: 1.5;" x1="39.5" x2="364.5" y1="307.0156" y2="307.0156"/><ellipse cx="49.5" cy="319.4336" fill="#84BE84" rx="3" ry="3" style="stroke: #038048; stroke-width: 1.0;"/><text fill="#000000" font-family="sans-serif" font-size="11" lengthAdjust="spacingAndGlyphs" textLength="128" x="58.5" y="322.4346">endpointURLForInterface()</text><ellipse cx="49.5" cy="333.2695" fill="#84BE84" rx="3" ry="3" style="stroke: #038048; stroke-width: 1.0;"/><text fill="#000000" font-family="sans-serif" font-size="11" lengthAdjust="spacingAndGlyphs" textLength="110" x="58.5" y="336.2705">getHomeCommunityId()</text><ellipse cx="49.5" cy="347.1055" fill="#84BE84" rx="3" ry="3" style="stroke: #038048; stroke-width: 1.0;"/><text fill="#000000" font-family="sans-serif" font-size="11" lengthAdjust="spacingAndGlyphs" textLength="89" x="58.5" y="350.1064">getLookupStatus()</text><ellipse cx="49.5" cy="360.9414" fill="#84BE84" rx="3" ry="3" style="stroke: #038048; stroke-width: 1.0;"/><text fill="#000000" font-family="sans-serif" font-size="11" lengthAdjust="spacingAndGlyphs" textLength="55" x="58.5" y="363.9424">isRunning()</text><ellipse cx="49.5" cy="374.7773" fill="#84BE84" rx="3" ry="3" style="stroke: #038048; stroke-width: 1.0;"/><text fill="#000000" font-family="sans-serif" font-size="11" lengthAdjust="spacingAndGlyphs" textLength="39" x="58.5" y="377.7783">lookup()</text><polygon fill="#FFFF44" points="49.5,383.6133,53.5,387.6133,49.5,391.6133,45.5,387.6133" style="stroke: #B38D22; stroke-width: 1.0;"/><text fill="#000000" font-family="sans-serif" font-size="11" lengthAdjust="spacingAndGlyphs" textLength="86" x="58.5" y="391.6143">answerCallback()</text><polygon fill="#FFFF44" points="49.5,397.4492,53.5,401.4492,49.5,405.4492,45.5,401.4492" style="stroke: #B38D22; stroke-width: 1.0;"/><text fill="#000000" font-family="sans-serif" font-size="11" font-style="italic" lengthAdjust="spacingAndGlyphs" textLength="60" x="58.5" y="405.4502">doResolve()</text><polygon fill="#FFFF44" points="49.5,411.2852,53.5,415.2852,49.5,419.2852,45.5,415.2852" style="stroke: #B38D22; stroke-width: 1.0;"/><text fill="#000000" font-family="sans-serif" font-size="11" lengthAdjust="spacingAndGlyphs" textLength="62" x="58.5" y="419.2861">setRunning()</text><polygon fill="#4177AF" points="49.5,426.1211,45.5,432.1211,53.5,432.1211" style="stroke: #1963A0; stroke-width: 1.0;"/><text fill="#000000" font-family="sans-serif" font-size="11" lengthAdjust="spacingAndGlyphs" textLength="80" x="58.5" y="433.1221">handleAnswer()</text><polygon fill="#4177AF" points="49.5,439.957,45.5,445.957,53.5,445.957" style="stroke: #1963A0; stroke-width: 1.0;"/><text fill="#000000" font-family="sans-serif" font-size="11" lengthAdjust="spacingAndGlyphs" textLength="89" x="58.5" y="446.958">setLookupStatus()</text><rect fill="#F24D5C" height="6" style="stroke: #C82930; stroke-width: 1.0;" width="6" x="46.5" y="454.793"/><text fill="#000000" font-family="sans-serif" font-size="11" lengthAdjust="spacingAndGlyphs" textLength="90" x="58.5" y="460.7939">checkTxtVersion()</text><rect fill="#F24D5C" height="6" style="stroke: #C82930; stroke-width: 1.0;" width="6" x="46.5" y="468.6289"/><text fill="#000000" font-family="sans-serif" font-size="11" lengthAdjust="spacingAndGlyphs" textLength="32" x="58.5" y="474.6299">clear()</text><rect fill="#F24D5C" height="6" style="stroke: #C82930; stroke-width: 1.0;" width="6" x="46.5" y="482.4648"/><text fill="#000000" font-family="sans-serif" font-size="11" lengthAdjust="spacingAndGlyphs" textLength="121" x="58.5" y="488.4658">fillDnsTxtRecordValues()</text><rect fill="#F24D5C" height="6" style="stroke: #C82930; stroke-width: 1.0;" width="6" x="46.5" y="496.3008"/><text fill="#000000" font-family="sans-serif" font-size="11" lengthAdjust="spacingAndGlyphs" textLength="69" x="58.5" y="502.3018">fillModuleList()</text><rect fill="#F24D5C" height="6" style="stroke: #C82930; stroke-width: 1.0;" width="6" x="46.5" y="510.1367"/><text fill="#000000" font-family="sans-serif" font-size="11" lengthAdjust="spacingAndGlyphs" textLength="129" x="58.5" y="516.1377">handleRecordsAsStrings()</text><rect fill="#F24D5C" height="6" style="stroke: #C82930; stroke-width: 1.0;" width="6" x="46.5" y="523.9727"/><text fill="#000000" font-family="sans-serif" font-size="11" lengthAdjust="spacingAndGlyphs" textLength="58" x="58.5" y="529.9736">handleTTL()</text><rect fill="#F24D5C" height="6" style="stroke: #C82930; stroke-width: 1.0;" width="6" x="46.5" y="537.8086"/><text fill="#000000" font-family="sans-serif" font-size="11" lengthAdjust="spacingAndGlyphs" textLength="47" x="58.5" y="543.8096">setFqdn()</text><!--class de.gematik.ti.epa.android.fdv.service.localization.GatewayModulePathType--><rect fill="#FEFECE" filter="url(#f1dm258nz3kp82)" height="117.1797" id="de.gematik.ti.epa.android.fdv.service.localization.GatewayModulePathType" style="stroke: #A80036; stroke-width: 1.5;" width="170" x="401" y="308.5"/><ellipse cx="416" cy="324.5" fill="#ADD1B2" rx="11" ry="11" style="stroke: #A80036; stroke-width: 1.0;"/><path d="M418,321 Q418.2031,320.5 418.4375,320.25 Q418.6719,320 418.9375,320 Q419.4063,320 419.7031,320.2813 Q420,320.5625 420,321.2188 L420,322.7813 Q420,323.4375 419.7188,323.7188 Q419.4375,324 419,324 Q418.6094,324 418.3594,323.8281 Q418.1094,323.6563 418,323.2031 Q417.9531,322.8906 417.7813,322.7188 Q417.4688,322.3906 416.9063,322.1953 Q416.3438,322 415.7813,322 Q415.0781,322 414.4922,322.2813 Q413.9063,322.5625 413.4531,323.1875 Q413,323.8125 413,324.6719 L413,325.5938 Q413,326.625 413.8438,327.3125 Q414.6875,328 416.1875,328 Q417.0781,328 417.7031,327.7969 Q418.0625,327.6875 418.4688,327.3281 Q418.7344,327.125 418.875,327.0625 Q419.0156,327 419.1875,327 Q419.5156,327 419.7578,327.2578 Q420,327.5156 420,327.875 Q420,328.2188 419.6563,328.625 Q419.1563,329.2188 418.3594,329.5469 Q417.3125,330 416.0313,330 Q414.5313,330 413.3281,329.4063 Q412.3594,328.9375 411.6797,327.9219 Q411,326.9063 411,325.7031 L411,324.6094 Q411,323.3594 411.6016,322.2656 Q412.2031,321.1719 413.2578,320.5859 Q414.3125,320 415.5,320 Q416.2188,320 416.8438,320.25 Q417.4688,320.5 418,321 Z "/><text fill="#000000" font-family="sans-serif" font-size="12" lengthAdjust="spacingAndGlyphs" textLength="138" x="430" y="329.4102">GatewayModulePathType</text><line style="stroke: #A80036; stroke-width: 1.5;" x1="402" x2="570" y1="340.5" y2="340.5"/><rect fill="none" height="6" style="stroke: #C82930; stroke-width: 1.0;" width="6" x="409" y="349.918"/><text fill="#000000" font-family="sans-serif" font-size="11" lengthAdjust="spacingAndGlyphs" textLength="58" x="421" y="355.9189">path : String</text><rect fill="none" height="6" style="stroke: #C82930; stroke-width: 1.0;" width="6" x="409" y="363.7539"/><text fill="#000000" font-family="sans-serif" font-size="11" lengthAdjust="spacingAndGlyphs" textLength="73" x="421" y="369.7549">validUntil : Date</text><line style="stroke: #A80036; stroke-width: 1.5;" x1="402" x2="570" y1="376.1719" y2="376.1719"/><ellipse cx="412" cy="388.5898" fill="#84BE84" rx="3" ry="3" style="stroke: #038048; stroke-width: 1.0;"/><text fill="#000000" font-family="sans-serif" font-size="11" lengthAdjust="spacingAndGlyphs" textLength="132" x="421" y="391.5908">GatewayModulePathType()</text><ellipse cx="412" cy="402.4258" fill="#84BE84" rx="3" ry="3" style="stroke: #038048; stroke-width: 1.0;"/><text fill="#000000" font-family="sans-serif" font-size="11" lengthAdjust="spacingAndGlyphs" textLength="44" x="421" y="405.4268">getPath()</text><ellipse cx="412" cy="416.2617" fill="#84BE84" rx="3" ry="3" style="stroke: #038048; stroke-width: 1.0;"/><text fill="#000000" font-family="sans-serif" font-size="11" lengthAdjust="spacingAndGlyphs" textLength="67" x="421" y="419.2627">getValidUntil()</text><!--class de.gematik.ti.epa.android.fdv.service.localization.ServiceLocator--><rect fill="#FEFECE" filter="url(#f1dm258nz3kp82)" height="131.0156" id="de.gematik.ti.epa.android.fdv.service.localization.ServiceLocator" style="stroke: #A80036; stroke-width: 1.5;" width="232" x="606" y="301.5"/><ellipse cx="677.25" cy="317.5" fill="#ADD1B2" rx="11" ry="11" style="stroke: #A80036; stroke-width: 1.0;"/><path d="M679.25,314 Q679.4531,313.5 679.6875,313.25 Q679.9219,313 680.1875,313 Q680.6563,313 680.9531,313.2813 Q681.25,313.5625 681.25,314.2188 L681.25,315.7813 Q681.25,316.4375 680.9688,316.7188 Q680.6875,317 680.25,317 Q679.8594,317 679.6094,316.8281 Q679.3594,316.6563 679.25,316.2031 Q679.2031,315.8906 679.0313,315.7188 Q678.7188,315.3906 678.1563,315.1953 Q677.5938,315 677.0313,315 Q676.3281,315 675.7422,315.2813 Q675.1563,315.5625 674.7031,316.1875 Q674.25,316.8125 674.25,317.6719 L674.25,318.5938 Q674.25,319.625 675.0938,320.3125 Q675.9375,321 677.4375,321 Q678.3281,321 678.9531,320.7969 Q679.3125,320.6875 679.7188,320.3281 Q679.9844,320.125 680.125,320.0625 Q680.2656,320 680.4375,320 Q680.7656,320 681.0078,320.2578 Q681.25,320.5156 681.25,320.875 Q681.25,321.2188 680.9063,321.625 Q680.4063,322.2188 679.6094,322.5469 Q678.5625,323 677.2813,323 Q675.7813,323 674.5781,322.4063 Q673.6094,321.9375 672.9297,320.9219 Q672.25,319.9063 672.25,318.7031 L672.25,317.6094 Q672.25,316.3594 672.8516,315.2656 Q673.4531,314.1719 674.5078,313.5859 Q675.5625,313 676.75,313 Q677.4688,313 678.0938,313.25 Q678.7188,313.5 679.25,314 Z "/><text fill="#000000" font-family="sans-serif" font-size="12" lengthAdjust="spacingAndGlyphs" textLength="81" x="697.75" y="322.4102">ServiceLocator</text><line style="stroke: #A80036; stroke-width: 1.5;" x1="607" x2="837" y1="333.5" y2="333.5"/><rect fill="none" height="6" style="stroke: #C82930; stroke-width: 1.0;" width="6" x="614" y="342.918"/><text fill="#000000" font-family="sans-serif" font-size="11" lengthAdjust="spacingAndGlyphs" textLength="206" x="626" y="348.9189">abstractServiceLocator : IServiceLocalizer</text><line style="stroke: #A80036; stroke-width: 1.5;" x1="607" x2="837" y1="355.3359" y2="355.3359"/><ellipse cx="617" cy="367.7539" fill="#84BE84" rx="3" ry="3" style="stroke: #038048; stroke-width: 1.0;"/><text fill="#000000" font-family="sans-serif" font-size="11" lengthAdjust="spacingAndGlyphs" textLength="82" x="626" y="370.7549">ServiceLocator()</text><ellipse cx="617" cy="381.5898" fill="#84BE84" rx="3" ry="3" style="stroke: #038048; stroke-width: 1.0;"/><text fill="#000000" font-family="sans-serif" font-size="11" lengthAdjust="spacingAndGlyphs" textLength="128" x="626" y="384.5908">endpointURLForInterface()</text><ellipse cx="617" cy="395.4258" fill="#84BE84" rx="3" ry="3" style="stroke: #038048; stroke-width: 1.0;"/><text fill="#000000" font-family="sans-serif" font-size="11" lengthAdjust="spacingAndGlyphs" textLength="110" x="626" y="398.4268">getHomeCommunityId()</text><ellipse cx="617" cy="409.2617" fill="#84BE84" rx="3" ry="3" style="stroke: #038048; stroke-width: 1.0;"/><text fill="#000000" font-family="sans-serif" font-size="11" lengthAdjust="spacingAndGlyphs" textLength="89" x="626" y="412.2627">getLookupStatus()</text><ellipse cx="617" cy="423.0977" fill="#84BE84" rx="3" ry="3" style="stroke: #038048; stroke-width: 1.0;"/><text fill="#000000" font-family="sans-serif" font-size="11" lengthAdjust="spacingAndGlyphs" textLength="39" x="626" y="426.0986">lookup()</text><!--class de.gematik.ti.epa.android.fdv.service.localization.ServiceLocatorV10--><rect fill="#FEFECE" filter="url(#f1dm258nz3kp82)" height="89.5078" id="de.gematik.ti.epa.android.fdv.service.localization.ServiceLocatorV10" style="stroke: #A80036; stroke-width: 1.5;" width="154" x="517" y="637.5"/><ellipse cx="541" cy="653.5" fill="#ADD1B2" rx="11" ry="11" style="stroke: #A80036; stroke-width: 1.0;"/><path d="M543,650 Q543.2031,649.5 543.4375,649.25 Q543.6719,649 543.9375,649 Q544.4063,649 544.7031,649.2813 Q545,649.5625 545,650.2188 L545,651.7813 Q545,652.4375 544.7188,652.7188 Q544.4375,653 544,653 Q543.6094,653 543.3594,652.8281 Q543.1094,652.6563 543,652.2031 Q542.9531,651.8906 542.7813,651.7188 Q542.4688,651.3906 541.9063,651.1953 Q541.3438,651 540.7813,651 Q540.0781,651 539.4922,651.2813 Q538.9063,651.5625 538.4531,652.1875 Q538,652.8125 538,653.6719 L538,654.5938 Q538,655.625 538.8438,656.3125 Q539.6875,657 541.1875,657 Q542.0781,657 542.7031,656.7969 Q543.0625,656.6875 543.4688,656.3281 Q543.7344,656.125 543.875,656.0625 Q544.0156,656 544.1875,656 Q544.5156,656 544.7578,656.2578 Q545,656.5156 545,656.875 Q545,657.2188 544.6563,657.625 Q544.1563,658.2188 543.3594,658.5469 Q542.3125,659 541.0313,659 Q539.5313,659 538.3281,658.4063 Q537.3594,657.9375 536.6797,656.9219 Q536,655.9063 536,654.7031 L536,653.6094 Q536,652.3594 536.6016,651.2656 Q537.2031,650.1719 538.2578,649.5859 Q539.3125,649 540.5,649 Q541.2188,649 541.8438,649.25 Q542.4688,649.5 543,650 Z "/><text fill="#000000" font-family="sans-serif" font-size="12" lengthAdjust="spacingAndGlyphs" textLength="102" x="557" y="658.4102">ServiceLocatorV10</text><line style="stroke: #A80036; stroke-width: 1.5;" x1="518" x2="670" y1="669.5" y2="669.5"/><line style="stroke: #A80036; stroke-width: 1.5;" x1="518" x2="670" y1="677.5" y2="677.5"/><ellipse cx="528" cy="689.918" fill="#84BE84" rx="3" ry="3" style="stroke: #038048; stroke-width: 1.0;"/><text fill="#000000" font-family="sans-serif" font-size="11" lengthAdjust="spacingAndGlyphs" textLength="102" x="537" y="692.9189">ServiceLocatorV10()</text><polygon fill="#FFFF44" points="528,698.7539,532,702.7539,528,706.7539,524,702.7539" style="stroke: #B38D22; stroke-width: 1.0;"/><text fill="#000000" font-family="sans-serif" font-size="11" lengthAdjust="spacingAndGlyphs" textLength="59" x="537" y="706.7549">doResolve()</text><rect fill="#F24D5C" height="6" style="stroke: #C82930; stroke-width: 1.0;" width="6" x="525" y="714.5898"/><text fill="#000000" font-family="sans-serif" font-size="11" lengthAdjust="spacingAndGlyphs" textLength="128" x="537" y="720.5908">initializeResolverCallback()</text><!--class de.gematik.ti.epa.android.fdv.service.localization.ServiceLocatorV9--><rect fill="#FEFECE" filter="url(#f1dm258nz3kp82)" height="144.8516" id="de.gematik.ti.epa.android.fdv.service.localization.ServiceLocatorV9" style="stroke: #A80036; stroke-width: 1.5;" width="226" x="89" y="610"/><ellipse cx="150.25" cy="626" fill="#ADD1B2" rx="11" ry="11" style="stroke: #A80036; stroke-width: 1.0;"/><path d="M152.25,622.5 Q152.4531,622 152.6875,621.75 Q152.9219,621.5 153.1875,621.5 Q153.6563,621.5 153.9531,621.7813 Q154.25,622.0625 154.25,622.7188 L154.25,624.2813 Q154.25,624.9375 153.9688,625.2188 Q153.6875,625.5 153.25,625.5 Q152.8594,625.5 152.6094,625.3281 Q152.3594,625.1563 152.25,624.7031 Q152.2031,624.3906 152.0313,624.2188 Q151.7188,623.8906 151.1563,623.6953 Q150.5938,623.5 150.0313,623.5 Q149.3281,623.5 148.7422,623.7813 Q148.1563,624.0625 147.7031,624.6875 Q147.25,625.3125 147.25,626.1719 L147.25,627.0938 Q147.25,628.125 148.0938,628.8125 Q148.9375,629.5 150.4375,629.5 Q151.3281,629.5 151.9531,629.2969 Q152.3125,629.1875 152.7188,628.8281 Q152.9844,628.625 153.125,628.5625 Q153.2656,628.5 153.4375,628.5 Q153.7656,628.5 154.0078,628.7578 Q154.25,629.0156 154.25,629.375 Q154.25,629.7188 153.9063,630.125 Q153.4063,630.7188 152.6094,631.0469 Q151.5625,631.5 150.2813,631.5 Q148.7813,631.5 147.5781,630.9063 Q146.6094,630.4375 145.9297,629.4219 Q145.25,628.4063 145.25,627.2031 L145.25,626.1094 Q145.25,624.8594 145.8516,623.7656 Q146.4531,622.6719 147.5078,622.0859 Q148.5625,621.5 149.75,621.5 Q150.4688,621.5 151.0938,621.75 Q151.7188,622 152.25,622.5 Z "/><text fill="#000000" font-family="sans-serif" font-size="12" lengthAdjust="spacingAndGlyphs" textLength="95" x="170.75" y="630.9102">ServiceLocatorV9</text><line style="stroke: #A80036; stroke-width: 1.5;" x1="90" x2="314" y1="642" y2="642"/><rect fill="none" height="6" style="stroke: #C82930; stroke-width: 1.0;" width="6" x="97" y="651.418"/><text fill="#000000" font-family="sans-serif" font-size="11" lengthAdjust="spacingAndGlyphs" text-decoration="underline" textLength="90" x="109" y="657.4189">DEFAULT_TTL : int</text><rect fill="none" height="6" style="stroke: #C82930; stroke-width: 1.0;" width="6" x="97" y="665.2539"/><text fill="#000000" font-family="sans-serif" font-size="11" lengthAdjust="spacingAndGlyphs" text-decoration="underline" textLength="59" x="109" y="671.2549">TAG : String</text><rect fill="none" height="6" style="stroke: #C82930; stroke-width: 1.0;" width="6" x="97" y="679.0898"/><text fill="#000000" font-family="sans-serif" font-size="11" lengthAdjust="spacingAndGlyphs" textLength="200" x="109" y="685.0908">dnssecResolverApi : DnssecResolverApi</text><line style="stroke: #A80036; stroke-width: 1.5;" x1="90" x2="314" y1="691.5078" y2="691.5078"/><ellipse cx="100" cy="703.9258" fill="#84BE84" rx="3" ry="3" style="stroke: #038048; stroke-width: 1.0;"/><text fill="#000000" font-family="sans-serif" font-size="11" lengthAdjust="spacingAndGlyphs" textLength="96" x="109" y="706.9268">ServiceLocatorV9()</text><polygon fill="#FFFF44" points="100,712.7617,104,716.7617,100,720.7617,96,716.7617" style="stroke: #B38D22; stroke-width: 1.0;"/><text fill="#000000" font-family="sans-serif" font-size="11" lengthAdjust="spacingAndGlyphs" textLength="59" x="109" y="720.7627">doResolve()</text><rect fill="#F24D5C" height="6" style="stroke: #C82930; stroke-width: 1.0;" width="6" x="97" y="728.5977"/><text fill="#000000" font-family="sans-serif" font-size="11" lengthAdjust="spacingAndGlyphs" textLength="157" x="109" y="734.5986">getApplicationUsingReflection1()</text><rect fill="#F24D5C" height="6" style="stroke: #C82930; stroke-width: 1.0;" width="6" x="97" y="742.4336"/><text fill="#000000" font-family="sans-serif" font-size="11" lengthAdjust="spacingAndGlyphs" textLength="157" x="109" y="748.4346">getApplicationUsingReflection2()</text><!--class de.gematik.ti.epa.fdv.service.localization.spi.IServiceLocalizer--><rect fill="#FEFECE" filter="url(#f1dm258nz3kp82)" height="48" id="de.gematik.ti.epa.fdv.service.localization.spi.IServiceLocalizer" style="stroke: #A80036; stroke-width: 1.5;" width="124" x="660" y="60"/><ellipse cx="675" cy="76" fill="#ADD1B2" rx="11" ry="11" style="stroke: #A80036; stroke-width: 1.0;"/><path d="M677,72.5 Q677.2031,72 677.4375,71.75 Q677.6719,71.5 677.9375,71.5 Q678.4063,71.5 678.7031,71.7813 Q679,72.0625 679,72.7188 L679,74.2813 Q679,74.9375 678.7188,75.2188 Q678.4375,75.5 678,75.5 Q677.6094,75.5 677.3594,75.3281 Q677.1094,75.1563 677,74.7031 Q676.9531,74.3906 676.7813,74.2188 Q676.4688,73.8906 675.9063,73.6953 Q675.3438,73.5 674.7813,73.5 Q674.0781,73.5 673.4922,73.7813 Q672.9063,74.0625 672.4531,74.6875 Q672,75.3125 672,76.1719 L672,77.0938 Q672,78.125 672.8438,78.8125 Q673.6875,79.5 675.1875,79.5 Q676.0781,79.5 676.7031,79.2969 Q677.0625,79.1875 677.4688,78.8281 Q677.7344,78.625 677.875,78.5625 Q678.0156,78.5 678.1875,78.5 Q678.5156,78.5 678.7578,78.7578 Q679,79.0156 679,79.375 Q679,79.7188 678.6563,80.125 Q678.1563,80.7188 677.3594,81.0469 Q676.3125,81.5 675.0313,81.5 Q673.5313,81.5 672.3281,80.9063 Q671.3594,80.4375 670.6797,79.4219 Q670,78.4063 670,77.2031 L670,76.1094 Q670,74.8594 670.6016,73.7656 Q671.2031,72.6719 672.2578,72.0859 Q673.3125,71.5 674.5,71.5 Q675.2188,71.5 675.8438,71.75 Q676.4688,72 677,72.5 Z "/><text fill="#000000" font-family="sans-serif" font-size="12" lengthAdjust="spacingAndGlyphs" textLength="92" x="689" y="80.9102">IServiceLocalizer</text><line style="stroke: #A80036; stroke-width: 1.5;" x1="661" x2="783" y1="92" y2="92"/><line style="stroke: #A80036; stroke-width: 1.5;" x1="661" x2="783" y1="100" y2="100"/><!--link de.gematik.ti.epa.fdv.service.localization.spi.IServiceLocalizer to de.gematik.ti.epa.android.fdv.service.localization.AbstractServiceLocator--><path d="M639.812,91.534 C553.793,99.557 425.447,115.233 383,140 C362.593,151.907 343.579,167.059 326.133,183.864 " fill="none" id="de.gematik.ti.epa.fdv.service.localization.spi.IServiceLocalizer-de.gematik.ti.epa.android.fdv.service.localization.AbstractServiceLocator" style="stroke: #A80036; stroke-width: 1.0; stroke-dasharray: 7.0,7.0;"/><polygon fill="none" points="639.339,84.548,659.886,89.727,640.594,98.492,639.339,84.548" style="stroke: #A80036; stroke-width: 1.0;"/><!--link de.gematik.ti.epa.fdv.service.localization.spi.IServiceLocalizer to de.gematik.ti.epa.android.fdv.service.localization.ServiceLocator--><path d="M722,128.485 C722,174.745 722,248.423 722,301.456 " fill="none" id="de.gematik.ti.epa.fdv.service.localization.spi.IServiceLocalizer-de.gematik.ti.epa.android.fdv.service.localization.ServiceLocator" style="stroke: #A80036; stroke-width: 1.0; stroke-dasharray: 7.0,7.0;"/><polygon fill="none" points="715,128.475,722,108.475,729,128.475,715,128.475" style="stroke: #A80036; stroke-width: 1.0;"/><!--link de.gematik.ti.epa.fdv.service.localization.spi.IServiceLocalizer to de.gematik.ti.epa.android.fdv.service.localization.ServiceLocatorV10--><path d="M803.16,101.105 C823.798,109.257 843.616,121.53 856,140 C957.481,291.349 951.682,394.919 856,550 C815.982,614.862 733.131,648.837 671.251,665.866 " fill="none" id="de.gematik.ti.epa.fdv.service.localization.spi.IServiceLocalizer-de.gematik.ti.epa.android.fdv.service.localization.ServiceLocatorV10" style="stroke: #A80036; stroke-width: 1.0; stroke-dasharray: 7.0,7.0;"/><polygon fill="none" points="800.891,107.727,784.167,94.716,805.355,94.457,800.891,107.727" style="stroke: #A80036; stroke-width: 1.0;"/><!--link de.gematik.ti.epa.android.fdv.service.localization.AbstractServiceLocator to de.gematik.ti.epa.android.fdv.service.localization.ServiceLocatorV10--><path d="M381.382,548.707 C381.922,549.139 382.461,549.57 383,550 C424.861,583.352 475.674,615.246 516.945,639.271 " fill="none" id="de.gematik.ti.epa.android.fdv.service.localization.AbstractServiceLocator-de.gematik.ti.epa.android.fdv.service.localization.ServiceLocatorV10" style="stroke: #A80036; stroke-width: 1.0;"/><polygon fill="none" points="376.711,553.928,365.741,535.799,385.622,543.13,376.711,553.928" style="stroke: #A80036; stroke-width: 1.0;"/><!--link de.gematik.ti.epa.android.fdv.service.localization.AbstractServiceLocator to de.gematik.ti.epa.android.fdv.service.localization.ServiceLocatorV9--><path d="M202,570.79 C202,584.517 202,597.727 202,609.945 " fill="none" id="de.gematik.ti.epa.android.fdv.service.localization.AbstractServiceLocator-de.gematik.ti.epa.android.fdv.service.localization.ServiceLocatorV9" style="stroke: #A80036; stroke-width: 1.0;"/><polygon fill="none" points="195,570.364,202,550.364,209,570.364,195,570.364" style="stroke: #A80036; stroke-width: 1.0;"/><!--
@startuml



  namespace de.gematik.ti.epa.android.fdv.service.localization {
    abstract class de.gematik.ti.epa.android.fdv.service.localization.AbstractServiceLocator {
        {static} - PORT : int
        {static} - SCHEME : String
        - dnsTxtRecordValues : Map<String, GatewayModulePathType>
        - fqdn : String
        - lookupStatus : LookupStatus
        - running : boolean
        + endpointURLForInterface()
        + getHomeCommunityId()
        + getLookupStatus()
        + isRunning()
        + lookup()
        # answerCallback()
        {abstract} # doResolve()
        # setRunning()
        ~ handleAnswer()
        ~ setLookupStatus()
        - checkTxtVersion()
        - clear()
        - fillDnsTxtRecordValues()
        - fillModuleList()
        - handleRecordsAsStrings()
        - handleTTL()
        - setFqdn()
    }
  }


  namespace de.gematik.ti.epa.android.fdv.service.localization {
    class de.gematik.ti.epa.android.fdv.service.localization.GatewayModulePathType {
        - path : String
        - validUntil : Date
        + GatewayModulePathType()
        + getPath()
        + getValidUntil()
    }
  }


  namespace de.gematik.ti.epa.android.fdv.service.localization {
    class de.gematik.ti.epa.android.fdv.service.localization.ServiceLocator {
        - abstractServiceLocator : IServiceLocalizer
        + ServiceLocator()
        + endpointURLForInterface()
        + getHomeCommunityId()
        + getLookupStatus()
        + lookup()
    }
  }


  namespace de.gematik.ti.epa.android.fdv.service.localization {
    class de.gematik.ti.epa.android.fdv.service.localization.ServiceLocatorV10 {
        + ServiceLocatorV10()
        # doResolve()
        - initializeResolverCallback()
    }
  }


  namespace de.gematik.ti.epa.android.fdv.service.localization {
    class de.gematik.ti.epa.android.fdv.service.localization.ServiceLocatorV9 {
        {static} - DEFAULT_TTL : int
        {static} - TAG : String
        - dnssecResolverApi : DnssecResolverApi
        + ServiceLocatorV9()
        # doResolve()
        - getApplicationUsingReflection1()
        - getApplicationUsingReflection2()
    }
  }


  de.gematik.ti.epa.android.fdv.service.localization.AbstractServiceLocator .up.|> de.gematik.ti.epa.fdv.service.localization.spi.IServiceLocalizer
  de.gematik.ti.epa.android.fdv.service.localization.ServiceLocator .up.|> de.gematik.ti.epa.fdv.service.localization.spi.IServiceLocalizer
  de.gematik.ti.epa.android.fdv.service.localization.ServiceLocatorV10 .up.|> de.gematik.ti.epa.fdv.service.localization.spi.IServiceLocalizer
  de.gematik.ti.epa.android.fdv.service.localization.ServiceLocatorV10 -up-|> de.gematik.ti.epa.android.fdv.service.localization.AbstractServiceLocator
  de.gematik.ti.epa.android.fdv.service.localization.ServiceLocatorV9 -up-|> de.gematik.ti.epa.android.fdv.service.localization.AbstractServiceLocator









@enduml

PlantUML version 1.2019.06(Fri May 24 19:10:25 CEST 2019)
(APACHE source distribution)
Java Runtime: OpenJDK Runtime Environment
JVM: OpenJDK 64-Bit Server VM
Java Version: 1.8.0_202-release-1483-b03
Operating System: Windows 7
OS Version: 6.1
Default Encoding: Cp1252
Language: de
Country: DE
--></g></svg>